PathFileType	4	(X/Y/Z)	OpenSim_Sub03_EMGStiffKnee_Magnet.trc
DataRate	CameraRate	NumFrames	NumMarkers	Units	OrigDataRate	OrigDataStartFrame	OrigNumFrames
100	100	13	8	m	100	950	7597
Frame#	Time	torso_imu_offset_imu	pelvis_imu_offset_imu	tibia_r_imu_offset_imu	femur_r_imu_offset_imu	tibia_l_imu_offset_imu	femur_l_imu_offset_imu	toes_r_imu_offset_imu	toes_l_imu_offset_imu
				X1	Y1	Z1	X2	Y2	Z2	X3	Y3	Z3	X4	Y4	Z4	X5	Y5	Z5	X6	Y6	Z6	X7	Y7	Z7	X8		Y8	Z8	

950	9.49000000	-0.89886179	-0.11210644	0.32205456	-0.66114938	0.10082194	-0.69537711	-0.63358499	-0.54309779	-0.10537410	-0.75394788	-0.39626270	0.05078860	-0.55805247	0.61495233	0.20965535	-0.69262946	0.41751221	0.32334857	-0.73033100	-0.14056835	-0.44880169	-0.81822780	-0.10793837	-0.17963582
951	9.50000000	-0.89489277	-0.10475605	0.32261075	-0.67023906	0.10219863	-0.69852720	-0.62935258	-0.54706315	-0.11283506	-0.75209962	-0.40071805	0.04329315	-0.57093198	0.59739381	0.20732882	-0.69814161	0.40910422	0.32348692	-0.73256606	-0.14823029	-0.45190544	-0.81706482	-0.11267951	-0.19316875
952	9.51000000	-0.89625190	-0.10269287	0.32752066	-0.66512054	0.09671451	-0.69807803	-0.62330740	-0.54781325	-0.11335297	-0.74685098	-0.40697746	0.04435975	-0.58256083	0.58442924	0.20057954	-0.70106991	0.39996690	0.32458861	-0.73885898	-0.15311927	-0.45005510	-0.81438682	-0.10659526	-0.21010370
953	9.52000000	-0.89644975	-0.10589790	0.33522974	-0.66398717	0.09515386	-0.69684502	-0.61961699	-0.55639538	-0.11153547	-0.74417522	-0.41475416	0.04008552	-0.59307182	0.57326239	0.20779753	-0.71103610	0.38812643	0.32271568	-0.74667462	-0.16038694	-0.45138216	-0.81388606	-0.10820224	-0.22739517
954	9.53000000	-0.89561103	-0.09954313	0.33328208	-0.66245198	0.09270105	-0.69665673	-0.61756961	-0.56444580	-0.10841531	-0.74067490	-0.42178798	0.03778059	-0.60509346	0.55313863	0.19962062	-0.71486776	0.37966349	0.31707900	-0.74803666	-0.16680135	-0.44954945	-0.81316469	-0.10835937	-0.25104620
955	9.54000000	-0.89449128	-0.09569620	0.33453573	-0.66836536	0.08845589	-0.69854399	-0.61402462	-0.56904364	-0.11038428	-0.73439543	-0.42641722	0.03776393	-0.61879347	0.54416850	0.19800756	-0.72138012	0.36732935	0.31766039	-0.74680019	-0.17645673	-0.45321759	-0.80561337	-0.10639109	-0.27191659
956	9.55000000	-0.89334382	-0.09019367	0.33292737	-0.67154543	0.09286211	-0.69932063	-0.60667830	-0.57150471	-0.11750475	-0.73053679	-0.42920682	0.03120692	-0.62993107	0.52837514	0.19491888	-0.72592600	0.35728253	0.32115610	-0.75059537	-0.18212730	-0.44835908	-0.79761634	-0.10968593	-0.29747014
957	9.56000000	-0.89573373	-0.08875879	0.33548778	-0.67147777	0.08663221	-0.69933785	-0.59879239	-0.57424272	-0.12053556	-0.73109165	-0.42992282	0.02917212	-0.64168599	0.51016158	0.19545423	-0.72612539	0.34647194	0.31946455	-0.75074772	-0.18816705	-0.45310721	-0.79167340	-0.11410188	-0.31895166
958	9.57000000	-0.89437853	-0.08525711	0.33729002	-0.66701985	0.08778732	-0.69618680	-0.59757727	-0.58265111	-0.12402334	-0.72570888	-0.44051491	0.02970257	-0.65599298	0.48754079	0.19651057	-0.73398469	0.32995224	0.32171146	-0.75699087	-0.18889649	-0.45446309	-0.78002245	-0.11954571	-0.33233795
959	9.58000000	-0.89575327	-0.08650204	0.33509994	-0.67256608	0.08393229	-0.69178040	-0.59293316	-0.58593142	-0.12675450	-0.72252992	-0.44758734	0.03199660	-0.66078360	0.47891568	0.19461253	-0.73528109	0.32284961	0.32790608	-0.76144479	-0.19631732	-0.45434907	-0.76500572	-0.12805330	-0.34826476
960	9.59000000	-0.89316483	-0.08033931	0.33533754	-0.67547329	0.07420768	-0.69536886	-0.58687862	-0.59145730	-0.13026753	-0.71681722	-0.45080991	0.03044910	-0.67560791	0.45727454	0.19128122	-0.74152232	0.30450459	0.32542972	-0.76076965	-0.20447243	-0.45599942	-0.75713930	-0.13447557	-0.35966384
961	9.60000000	-0.89309335	-0.07753889	0.34004952	-0.67474665	0.07892497	-0.69374581	-0.57639120	-0.59353217	-0.13439169	-0.71465351	-0.45586124	0.02088225	-0.68298309	0.44096653	0.19302818	-0.74341802	0.29084783	0.32423476	-0.76415059	-0.20888948	-0.45210908	-0.74493202	-0.14532753	-0.37750559
962	9.61000000	-0.89639393	-0.07721595	0.33853339	-0.67524070	0.07734211	-0.68935938	-0.57362398	-0.60420676	-0.14009571	-0.71357310	-0.46670041	0.02138138	-0.69361132	0.42840394	0.19307078	-0.74772976	0.28411565	0.33417906	-0.76518278	-0.21154301	-0.45204756	-0.73495741	-0.14820613	-0.39447838
